<?xml version="1.0" encoding="utf-8"?>
<!-- Generator: Adobe Illustrator 22.0.1, SVG Export Plug-In . SVG Version: 6.00 Build 0)  -->
<svg version="1.1" id="Layer_1" xmlns="http://www.w3.org/2000/svg" xmlns:xlink="http://www.w3.org/1999/xlink" x="0px" y="0px"
	 viewBox="0 0 600 336.3" style="enable-background:new 0 0 600 336.3;" xml:space="preserve">
<style type="text/css">
	.st0{fill:#9D9FA2;}
	.st1{fill:#FFFFFF;}
</style>
<g>
	<path class="st0" d="M88.2,281.1l-3.1,7.4h-8.5L91.5,257h10.4l3.4,31.4h-8.4l-0.4-7.4H88.2z M96.2,275.1l-0.3-5.8
		c-0.1-1.8-0.2-4.4-0.4-6.3h-0.1c-0.8,2-1.7,4.6-2.5,6.4l-2.4,5.7H96.2z"/>
	<path class="st0" d="M117.1,257.5c2.8-0.5,5.9-0.7,9.1-0.7c4.8,0,8.6,0.9,11.4,3.1c2.9,2.2,4.7,5.5,4.7,10.4
		c0,6.3-2.7,11.3-6.5,14.3c-3.7,2.8-8.3,4.1-15.4,4.1c-4.2,0-7.7-0.4-9-0.7L117.1,257.5z M120.5,282.1c0.5,0.1,1.3,0.1,2.4,0.1
		c3.1,0,6.1-1.2,7.9-3.4c1.8-2.2,2.8-5.1,2.8-8.6c0-4.7-2.8-7.1-7.3-7.1c-1.1,0-1.7,0-2.2,0.1L120.5,282.1z"/>
	<path class="st0" d="M152.9,288.5L149,257h8.2l1.1,12.7c0.3,3.4,0.6,7,0.8,10.8h0.1c1.4-3.5,3-7.4,4.5-10.6l5.7-12.9h8.9
		l-16.1,31.4H152.9z"/>
	<path class="st0" d="M200.2,275.7h-11l-1.2,6h12.5l-1.3,6.8h-20.4l6-31.4h19.7l-1.3,6.8h-11.8l-1,5.2h11.2L200.2,275.7z"/>
	<path class="st0" d="M206.7,288.5l5.9-31.4h9.5l2.8,9.5c1.2,4.1,2.2,7.8,2.9,11.6h0.1c0.1-3.4,0.7-7.2,1.5-11.9l1.7-9.2h7.4
		l-5.9,31.4h-8.4l-3.2-10.3c-1.3-4.4-2.2-7.6-3.1-11.8h-0.1c-0.4,3.1-1.2,8.1-2.2,13.3l-1.6,8.7H206.7z"/>
	<path class="st0" d="M251.7,264h-7.9l1.4-6.9H269l-1.4,6.9h-8l-4.6,24.5h-7.9L251.7,264z"/>
	<path class="st0" d="M283.5,257l-6,31.4h-7.9l6-31.4H283.5z"/>
	<path class="st0" d="M287.9,280.1c1.9,1.1,4.7,2,7.8,2c2.2,0,4.2-0.8,4.2-2.7c0-1.5-1.4-2.4-4.1-3.8c-3-1.6-6.6-4.1-6.6-8.4
		c0-6.7,5.8-10.6,13.2-10.6c4.1,0,6.4,0.8,7.9,1.5l-2.4,6.7c-1.1-0.5-3.4-1.4-6-1.3c-2.9,0-4.2,1.1-4.2,2.5c0,1.5,2.1,2.5,4.5,3.8
		c3.8,2,6.3,4.5,6.3,8.3c0,7.7-6.5,11-13.4,11c-4.9-0.1-8.1-1.2-9.6-2.3L287.9,280.1z"/>
	<path class="st0" d="M324.1,264h-7.9l1.4-6.9h23.9l-1.4,6.9h-8l-4.6,24.5h-7.9L324.1,264z"/>
	<path class="st0" d="M364.6,270.6l-1,5.1h-20.5l1-5.1H364.6z"/>
	<path class="st0" d="M375.2,257h7.9l-4.6,24.5h11.9l-1.3,6.9h-19.8L375.2,257z"/>
	<path class="st0" d="M406.2,281.1l-3.1,7.4h-8.5l14.9-31.4h10.4l3.4,31.4h-8.4l-0.4-7.4H406.2z M414.1,275.1l-0.3-5.8
		c-0.1-1.8-0.2-4.4-0.4-6.3h-0.1c-0.8,2-1.7,4.6-2.5,6.4l-2.4,5.7H414.1z"/>
	<path class="st0" d="M432.1,288.5l2.4-12.7l-6.2-18.8h8.5l1.5,7c0.5,2.6,0.8,4.1,1.2,5.9h0.1c1-1.9,1.9-3.6,3.1-5.9l3.9-7h9.5
		l-13.7,18.5l-2.4,12.9H432.1z"/>
	<path class="st0" d="M481.8,288.5l1.8-11.2c0.6-3.6,1.3-7.8,2.2-13h-0.1c-1.9,4.5-3.9,9.1-5.6,12.6l-5.2,11h-6.2l-0.6-10.9
		c-0.2-3.4-0.4-8-0.6-12.6h-0.1c-1,4.7-1.9,9.4-2.7,13l-2.6,11.2h-7.3l7.8-31.4h10.7l0.4,9.3c0.1,3.1,0.5,6.9,0.4,10.9h0.2
		c1.4-4,3.2-8.1,4.5-11l4.2-9.3h10.9l-4.4,31.4H481.8z"/>
	<path class="st0" d="M519,275.7h-11.1l-1.2,6h12.5l-1.3,6.8h-20.4l6-31.4h19.7l-1.3,6.8h-11.8l-1,5.2h11.1L519,275.7z"/>
	<path class="st0" d="M525.5,288.5l5.9-31.4h9.5l2.8,9.5c1.2,4.1,2.1,7.8,2.9,11.6h0.1c0.1-3.4,0.7-7.2,1.5-11.9l1.7-9.2h7.4
		l-5.9,31.4h-8.3l-3.2-10.3c-1.3-4.4-2.2-7.6-3.1-11.8h-0.1c-0.4,3.1-1.2,8.1-2.2,13.3l-1.6,8.7H525.5z"/>
	<path class="st0" d="M575.2,256.2c-2.3,4.8-4.8,9.2-7.8,13.3l-5.2,0.4c2.2-4.5,4-8.9,5.3-13.3L575.2,256.2z"/>
	<path class="st0" d="M577.7,280.1c1.9,1.1,4.7,2,7.7,2c2.2,0,4.2-0.8,4.2-2.7c0-1.5-1.4-2.4-4.1-3.8c-3-1.6-6.6-4.1-6.6-8.4
		c0-6.7,5.8-10.6,13.2-10.6c4.1,0,6.4,0.8,7.9,1.5l-2.4,6.7c-1.1-0.5-3.4-1.4-6-1.3c-2.8,0-4.2,1.1-4.2,2.5c0,1.5,2.1,2.5,4.5,3.8
		c3.8,2,6.3,4.5,6.3,8.3c0,7.7-6.5,11-13.4,11c-4.9-0.1-8.1-1.2-9.6-2.3L577.7,280.1z"/>
	<path class="st0" d="M80.3,327.4c1.9,1.1,4.7,2,7.7,2c2.2,0,4.2-0.8,4.2-2.7c0-1.5-1.4-2.4-4.1-3.8c-3-1.6-6.6-4.1-6.6-8.4
		c0-6.7,5.8-10.6,13.2-10.6c4.2,0,6.4,0.8,7.9,1.5l-2.4,6.7c-1.1-0.5-3.4-1.4-6-1.3c-2.8,0-4.2,1.1-4.2,2.5c0,1.5,2.1,2.5,4.5,3.8
		c3.8,2,6.3,4.5,6.3,8.3c0,7.7-6.5,11-13.4,11c-4.9-0.1-8.1-1.2-9.6-2.3L80.3,327.4z"/>
	<path class="st0" d="M125.6,323.1h-11.1l-1.2,6h12.5l-1.3,6.8h-20.4l6-31.4h19.7l-1.3,6.8h-11.8l-1,5.2h11.2L125.6,323.1z"/>
	<path class="st0" d="M136.1,305c2.2-0.5,5.7-0.8,9.1-0.8c2.9,0,6.2,0.3,8.6,1.6c2.2,1.2,4,3.3,4,6.5c0,4.7-2.9,7.4-7,8.8l0,0.2
		c1.7,0.9,2.5,2.8,2.8,5.5c0.4,3.2,0.7,7.7,1.3,9.1h-8.2c-0.3-0.9-0.6-3.4-1-7.4c-0.3-3.6-1.5-4.5-3.9-4.5h-1.4l-2.2,11.9h-7.9
		L136.1,305z M141.5,318h2.5c3.1,0,5.5-1.8,5.5-4.5c0-2.1-2-3.1-4.2-3.1c-1.1,0-1.9,0.1-2.3,0.2L141.5,318z"/>
	<path class="st0" d="M166,335.8l-3.9-31.4h8.2l1.1,12.7c0.3,3.4,0.6,7,0.8,10.8h0.1c1.4-3.5,3-7.4,4.5-10.6l5.7-12.9h8.9
		l-16.1,31.4H166z"/>
	<path class="st0" d="M203.7,304.3l-6,31.4h-7.9l6-31.4H203.7z"/>
	<path class="st0" d="M228.9,335c-1.6,0.7-4.4,1.3-8.3,1.3c-8.5,0-14.4-5.1-14.4-13.4c0-7.6,3.5-13,8.5-16c3.3-2.1,7-2.9,11.4-2.9
		c3.4,0,6,0.7,6.9,1.2l-2.1,6.5c-0.8-0.3-2.8-0.9-5.5-0.9c-2.5,0-4.7,0.6-6.4,2c-2.5,1.9-4.1,5.1-4.1,9.3c0,4.8,2.9,7.5,7.8,7.5
		c2.1,0,4.2-0.3,5.6-0.9L228.9,335z"/>
	<path class="st0" d="M254.8,323.1h-11.1l-1.2,6H255l-1.3,6.8h-20.4l6-31.4H259l-1.3,6.8h-11.8l-1,5.2h11.2L254.8,323.1z"/>
	<path class="st0" d="M261.1,327.4c1.9,1.1,4.7,2,7.8,2c2.2,0,4.2-0.8,4.2-2.7c0-1.5-1.4-2.4-4.1-3.8c-3-1.6-6.6-4.1-6.6-8.4
		c0-6.7,5.8-10.6,13.2-10.6c4.1,0,6.4,0.8,7.9,1.5L281,312c-1.1-0.5-3.4-1.4-6-1.3c-2.8,0-4.2,1.1-4.2,2.5c0,1.5,2.1,2.5,4.5,3.8
		c3.8,2,6.3,4.5,6.3,8.3c0,7.7-6.5,11-13.4,11c-4.9-0.1-8.1-1.2-9.6-2.3L261.1,327.4z"/>
	<path class="st0" d="M314.6,335.8c-0.6-0.6-1-1.2-1.5-1.8c-1.7,1.1-4.3,2.3-8.3,2.3c-5.9,0-10.2-3.1-10.2-8.5
		c0-4.7,3.4-7.6,7.5-9.5l0-0.1c-0.9-1.4-1.7-3.2-1.7-5.1c0-5.3,4.2-9.2,10.5-9.2c4.9,0,8.7,2.8,8.7,7.4c0,3.6-2.8,6.2-7.7,8.5v0.1
		c1,1.6,2.5,3.4,3.6,4.9c2-2.3,3.3-5.1,4.1-7.4h7.2c-1.6,4.7-3.9,8.9-7.8,12.4c1.3,1.9,3,4.1,4.9,6.2H314.6z M307.1,330.4
		c1.3,0,2.1-0.5,2.8-0.9c-1.7-2-3.6-4.6-5.2-6.9c-1.1,0.9-2.1,2.2-2.1,3.9C302.7,328.6,304.1,330.4,307.1,330.4L307.1,330.4z
		 M310.2,308.9c-1.5,0-2.7,1.4-2.7,3.3c0,1.4,0.6,2.5,1.4,3.4c1.8-0.8,3.7-2.3,3.7-4.4C312.6,309.9,311.8,308.9,310.2,308.9
		L310.2,308.9z"/>
	<path class="st0" d="M351.5,304.3l-6,31.4h-7.9l6-31.4H351.5z"/>
	<path class="st0" d="M352.3,335.8l5.9-31.4h9.5l2.8,9.5c1.2,4.2,2.2,7.8,2.9,11.6h0.1c0.1-3.4,0.7-7.2,1.5-11.9l1.7-9.2h7.4
		l-5.9,31.4H370l-3.2-10.3c-1.3-4.4-2.2-7.6-3.1-11.8h-0.1c-0.4,3.1-1.2,8.1-2.2,13.3l-1.6,8.7H352.3z"/>
	<path class="st0" d="M390.9,304.8c2.9-0.5,5.9-0.7,9.1-0.7c4.8,0,8.6,0.9,11.4,3.1c2.9,2.2,4.7,5.5,4.7,10.4
		c0,6.3-2.7,11.3-6.5,14.3c-3.7,2.8-8.3,4.1-15.4,4.1c-4.2,0-7.7-0.4-9-0.7L390.9,304.8z M394.3,329.4c0.5,0.1,1.3,0.1,2.4,0.1
		c3.1,0,6.1-1.2,7.9-3.4c1.8-2.2,2.8-5.1,2.8-8.6c0-4.7-2.8-7.1-7.3-7.1c-1.1,0-1.7,0-2.2,0.1L394.3,329.4z"/>
	<path class="st0" d="M432.2,304.3l-3.4,17.9c-0.2,1-0.3,2.2-0.3,3.6c0.1,1.9,1.3,3.8,4,3.8c3.2,0,5.2-2.1,6.2-7.4l3.4-17.9h8
		l-3.3,17.5c-1.8,9.6-5.8,14.5-15.2,14.5c-7,0-11-3.5-11-10.3c0-1.4,0.2-2.9,0.5-4.5l3.3-17.2H432.2z"/>
	<path class="st0" d="M452.4,327.4c1.9,1.1,4.7,2,7.7,2c2.2,0,4.2-0.8,4.2-2.7c0-1.5-1.4-2.4-4.1-3.8c-3-1.6-6.6-4.1-6.6-8.4
		c0-6.7,5.8-10.6,13.1-10.6c4.2,0,6.4,0.8,7.9,1.5l-2.4,6.7c-1.1-0.5-3.4-1.4-6-1.3c-2.8,0-4.2,1.1-4.2,2.5c0,1.5,2.1,2.5,4.5,3.8
		c3.8,2,6.3,4.5,6.3,8.3c0,7.7-6.5,11-13.4,11c-4.9-0.1-8.1-1.2-9.6-2.3L452.4,327.4z"/>
	<path class="st0" d="M486.8,311.3h-7.9l1.4-6.9h23.9l-1.4,6.9h-8l-4.6,24.5h-7.9L486.8,311.3z"/>
	<path class="st0" d="M508.9,305c2.2-0.5,5.7-0.8,9.1-0.8c2.9,0,6.2,0.3,8.6,1.6c2.2,1.2,4,3.3,4,6.5c0,4.7-2.9,7.4-6.9,8.8l0,0.2
		c1.7,0.9,2.5,2.8,2.8,5.5c0.4,3.2,0.7,7.7,1.3,9.1h-8.2c-0.3-0.9-0.6-3.4-1-7.4c-0.3-3.6-1.5-4.5-3.9-4.5h-1.4l-2.2,11.9H503
		L508.9,305z M514.2,318h2.5c3.1,0,5.6-1.8,5.6-4.5c0-2.1-2-3.1-4.2-3.1c-1.1,0-1.9,0.1-2.3,0.2L514.2,318z"/>
	<path class="st0" d="M546.1,304.3l-6,31.4h-7.9l6-31.4H546.1z"/>
	<path class="st0" d="M568.3,323.1h-11l-1.2,6h12.5l-1.3,6.8h-20.4l6-31.4h19.7l-1.3,6.8h-11.8l-1,5.2h11.2L568.3,323.1z"/>
	<path class="st0" d="M574.7,327.4c1.9,1.1,4.7,2,7.7,2c2.2,0,4.2-0.8,4.2-2.7c0-1.5-1.4-2.4-4.1-3.8c-3-1.6-6.6-4.1-6.6-8.4
		c0-6.7,5.8-10.6,13.2-10.6c4.2,0,6.4,0.8,7.9,1.5l-2.4,6.7c-1.1-0.5-3.4-1.4-6-1.3c-2.8,0-4.2,1.1-4.2,2.5c0,1.5,2.1,2.5,4.5,3.8
		c3.8,2,6.3,4.5,6.3,8.3c0,7.7-6.5,11-13.4,11c-4.9-0.1-8.1-1.2-9.6-2.3L574.7,327.4z"/>
</g>
<g>
	<path class="st1" d="M320.8,51.5c19.6-0.7,57-0.4,57-0.4l11.5-50.4c0,0-34.2-0.8-65.4-0.8c-55,0-98.8,29.8-98.8,79.9
		c0,32.6,25.3,48,48,60.2c20.3,10.5,30.8,17.2,30.8,28.7c0,14-15.7,18.9-32.2,18.6c-16.1,0-32.4-0.7-47.3-1.5L204.7,0.7h-71.6
		c0,0-47.8,39.7-84.7,115.9C2.7,211.2,2.4,288.3,0,288.3h58.5c1.7-54.2,22.2-107.9,22.2-107.9l83.3,1l2.8,55.3h58.9
		c12.1,0.2,23.2,0,46.6-0.4c52.2-0.9,95.3-20.9,95.3-78.4c0-28-17.2-44.5-45.9-59.2c-17.9-10.2-33.6-17.5-33.6-28.7
		C288.2,59.9,299.4,51.5,320.8,51.5z M102.4,135.3c0,0,31.7-66,53-86.8l6.5,87.8L102.4,135.3z"/>
</g>
<path class="st1" d="M409.1,0.7l-9.6,50.6H459l9.6-50.6H409.1z M364.2,236.8h59.6l31.4-165.1h-59.6L364.2,236.8z"/>
<g>
	<path class="st1" d="M454.2,220.4c4.5,0,8.1,3.5,8.1,8c0,4.6-3.5,8.1-8.1,8.1c-4.6,0-8.2-3.5-8.2-8.1
		C445.9,224,449.5,220.4,454.2,220.4L454.2,220.4z M454.1,221.8c-3.6,0-6.4,3-6.4,6.6c0,3.7,2.8,6.7,6.5,6.7c3.6,0,6.3-2.9,6.3-6.6
		C460.5,224.8,457.7,221.8,454.1,221.8L454.1,221.8z M452.6,232.9h-1.6v-8.4c0.9-0.2,1.8-0.3,2.9-0.3c1.4,0,2.1,0.3,2.6,0.6
		c0.5,0.4,0.9,1,0.9,1.8c0,1-0.8,1.7-1.6,2v0.1c0.7,0.3,1.1,1,1.4,2.1c0.3,1.3,0.5,1.8,0.7,2.1h-1.6c-0.3-0.3-0.5-1.1-0.7-2.2
		c-0.2-1-0.8-1.4-1.9-1.4h-1V232.9z M452.6,228.2h1.1c1.1,0,2.2-0.4,2.2-1.3c0-0.8-0.6-1.4-2-1.4c-0.6,0-1,0-1.2,0.1V228.2z"/>
</g>
</svg>
